<svg xmlns="http://www.w3.org/2000/svg" xmlns:xlink="http://www.w3.org/1999/xlink" width="500" zoomAndPan="magnify" viewBox="0 0 375 374.999991" height="500" preserveAspectRatio="xMidYMid meet" version="1.0"><defs><g/><clipPath id="0918d65927"><path d="M 84.742188 145 L 158.746094 145 L 158.746094 232.890625 L 84.742188 232.890625 Z M 84.742188 145 " clip-rule="nonzero"/></clipPath></defs><g clip-path="url(#0918d65927)"><path fill="#289672" d="M 92.335938 200.078125 L 118.476562 200.078125 L 118.476562 175.179688 C 116.710938 175.605469 114.523438 175.929688 112.007812 175.929688 C 107.953125 175.929688 103.152344 175.050781 98.21875 172.207031 C 85.539062 164.886719 84.558594 151.851562 84.527344 151.296875 C 84.429688 149.988281 85.148438 148.746094 86.324219 148.160156 C 86.816406 147.898438 98.578125 142.246094 111.289062 149.5625 C 121.480469 155.445312 124.09375 164.984375 124.78125 168.808594 C 126.644531 166.585938 129.0625 164.429688 132.199219 162.632812 C 144.875 155.28125 156.636719 160.964844 157.160156 161.195312 C 158.335938 161.785156 159.054688 163.023438 158.957031 164.332031 C 158.925781 164.886719 157.945312 177.925781 145.269531 185.242188 C 140.335938 188.085938 135.53125 188.96875 131.480469 188.96875 C 128.996094 188.96875 126.808594 188.640625 125.011719 188.214844 L 125.011719 200.078125 L 151.148438 200.078125 C 152.945312 200.078125 154.417969 201.546875 154.417969 203.34375 C 154.417969 203.636719 154.058594 232.75 121.742188 232.75 C 89.429688 232.75 89.070312 203.636719 89.070312 203.34375 C 89.070312 201.546875 90.539062 200.078125 92.335938 200.078125 Z M 108.019531 155.214844 C 101.191406 151.261719 94.722656 152.242188 91.453125 153.191406 C 92.269531 156.523438 94.65625 162.601562 101.484375 166.519531 C 108.3125 170.476562 114.785156 169.496094 118.050781 168.546875 C 117.234375 165.246094 114.847656 159.136719 108.019531 155.214844 Z M 142 179.589844 C 148.828125 175.636719 151.214844 169.558594 152.03125 166.261719 C 148.730469 165.3125 142.292969 164.332031 135.464844 168.285156 C 128.636719 172.238281 126.253906 178.316406 125.433594 181.617188 C 128.703125 182.5625 135.171875 183.542969 142 179.589844 Z M 121.742188 226.214844 C 141.707031 226.214844 146.410156 212.949219 147.554688 206.613281 L 95.929688 206.613281 C 97.007812 212.949219 101.648438 226.214844 121.742188 226.214844 Z M 121.742188 226.214844 " fill-opacity="1" fill-rule="nonzero"/></g><g fill="#289672" fill-opacity="1"><g transform="translate(180.524553, 178.859592)"><g><path d="M 13.453125 -18.359375 C 11.476562 -18.359375 9.675781 -17.460938 8.414062 -15.976562 L 8.414062 -30.824219 L 2.65625 -30.824219 L 2.65625 0 L 8.414062 0 L 8.414062 -10.171875 C 8.414062 -11.746094 9.71875 -13.273438 11.476562 -13.273438 C 13.09375 -13.273438 14.21875 -12.015625 14.21875 -10.441406 L 14.21875 0 L 19.980469 0 L 19.980469 -11.386719 C 19.980469 -15.34375 17.101562 -18.359375 13.453125 -18.359375 Z M 13.453125 -18.359375 "/></g></g></g><g fill="#289672" fill-opacity="1"><g transform="translate(201.854528, 178.859592)"><g><path d="M 22.726562 -4.679688 C 21.960938 -4.679688 21.148438 -4.949219 21.148438 -6.433594 L 21.148438 -18 L 15.433594 -18 L 15.433594 -16.425781 C 14.085938 -17.640625 12.375 -18.359375 10.304688 -18.359375 C 5.308594 -18.359375 1.394531 -14.21875 1.394531 -9 C 1.394531 -3.78125 5.308594 0.359375 10.304688 0.359375 C 12.914062 0.359375 15.03125 -0.808594 16.46875 -2.699219 C 17.59375 -0.855469 19.574219 0.359375 22.003906 0.359375 C 22.589844 0.359375 23.128906 0.179688 23.535156 0 L 23.535156 -4.679688 Z M 11.429688 -4.726562 C 9.046875 -4.726562 7.15625 -6.613281 7.15625 -9 C 7.15625 -11.386719 9.046875 -13.273438 11.429688 -13.273438 C 13.769531 -13.273438 15.703125 -11.386719 15.703125 -9 C 15.703125 -6.613281 13.769531 -4.726562 11.429688 -4.726562 Z M 11.429688 -4.726562 "/></g></g></g><g fill="#289672" fill-opacity="1"><g transform="translate(225.164502, 178.859592)"><g><path d="M 13.546875 -18.359375 C 11.476562 -18.359375 9.765625 -17.640625 8.414062 -16.425781 L 8.414062 -17.953125 L 2.65625 -18 L 2.65625 10.800781 L 8.414062 10.84375 L 8.414062 -1.574219 C 9.765625 -0.359375 11.476562 0.359375 13.546875 0.359375 C 18.496094 0.359375 22.410156 -3.78125 22.410156 -9 C 22.410156 -14.21875 18.496094 -18.359375 13.546875 -18.359375 Z M 12.421875 -4.726562 C 10.035156 -4.726562 8.144531 -6.613281 8.144531 -9 C 8.144531 -11.386719 10.035156 -13.273438 12.421875 -13.273438 C 14.804688 -13.273438 16.695312 -11.386719 16.695312 -9 C 16.695312 -6.613281 14.804688 -4.726562 12.421875 -4.726562 Z M 12.421875 -4.726562 "/></g></g></g><g fill="#289672" fill-opacity="1"><g transform="translate(248.069478, 178.859592)"><g><path d="M 13.546875 -18.359375 C 11.476562 -18.359375 9.765625 -17.640625 8.414062 -16.425781 L 8.414062 -17.953125 L 2.65625 -18 L 2.65625 10.800781 L 8.414062 10.84375 L 8.414062 -1.574219 C 9.765625 -0.359375 11.476562 0.359375 13.546875 0.359375 C 18.496094 0.359375 22.410156 -3.78125 22.410156 -9 C 22.410156 -14.21875 18.496094 -18.359375 13.546875 -18.359375 Z M 12.421875 -4.726562 C 10.035156 -4.726562 8.144531 -6.613281 8.144531 -9 C 8.144531 -11.386719 10.035156 -13.273438 12.421875 -13.273438 C 14.804688 -13.273438 16.695312 -11.386719 16.695312 -9 C 16.695312 -6.613281 14.804688 -4.726562 12.421875 -4.726562 Z M 12.421875 -4.726562 "/></g></g></g><g fill="#289672" fill-opacity="1"><g transform="translate(270.97446, 178.859592)"><g><path d="M 14.671875 -18 L 10.261719 -6.074219 L 5.761719 -18 L -0.226562 -18 L 7.289062 0.40625 L 3.058594 10.800781 L 9.089844 10.800781 L 20.609375 -18 Z M 14.671875 -18 "/></g></g></g><g fill="#289672" fill-opacity="1"><g transform="translate(180.524553, 221.609589)"><g><path d="M 13.546875 -18.359375 C 11.476562 -18.359375 9.765625 -17.640625 8.414062 -16.425781 L 8.414062 -17.953125 L 2.65625 -18 L 2.65625 10.800781 L 8.414062 10.84375 L 8.414062 -1.574219 C 9.765625 -0.359375 11.476562 0.359375 13.546875 0.359375 C 18.496094 0.359375 22.410156 -3.78125 22.410156 -9 C 22.410156 -14.21875 18.496094 -18.359375 13.546875 -18.359375 Z M 12.421875 -4.726562 C 10.035156 -4.726562 8.144531 -6.613281 8.144531 -9 C 8.144531 -11.386719 10.035156 -13.273438 12.421875 -13.273438 C 14.804688 -13.273438 16.695312 -11.386719 16.695312 -9 C 16.695312 -6.613281 14.804688 -4.726562 12.421875 -4.726562 Z M 12.421875 -4.726562 "/></g></g></g><g fill="#289672" fill-opacity="1"><g transform="translate(203.429532, 221.609589)"><g><path d="M 2.65625 0 L 8.414062 0 L 8.414062 -30.824219 L 2.65625 -30.824219 Z M 2.65625 0 "/></g></g></g><g fill="#289672" fill-opacity="1"><g transform="translate(213.599516, 221.609589)"><g><path d="M 22.726562 -4.679688 C 21.960938 -4.679688 21.148438 -4.949219 21.148438 -6.433594 L 21.148438 -18 L 15.433594 -18 L 15.433594 -16.425781 C 14.085938 -17.640625 12.375 -18.359375 10.304688 -18.359375 C 5.308594 -18.359375 1.394531 -14.21875 1.394531 -9 C 1.394531 -3.78125 5.308594 0.359375 10.304688 0.359375 C 12.914062 0.359375 15.03125 -0.808594 16.46875 -2.699219 C 17.59375 -0.855469 19.574219 0.359375 22.003906 0.359375 C 22.589844 0.359375 23.128906 0.179688 23.535156 0 L 23.535156 -4.679688 Z M 11.429688 -4.726562 C 9.046875 -4.726562 7.15625 -6.613281 7.15625 -9 C 7.15625 -11.386719 9.046875 -13.273438 11.429688 -13.273438 C 13.769531 -13.273438 15.703125 -11.386719 15.703125 -9 C 15.703125 -6.613281 13.769531 -4.726562 11.429688 -4.726562 Z M 11.429688 -4.726562 "/></g></g></g><g fill="#289672" fill-opacity="1"><g transform="translate(236.909487, 221.609589)"><g><path d="M 13.546875 -18.359375 C 11.476562 -18.359375 9.675781 -17.371094 8.414062 -15.796875 L 8.414062 -18 L 2.65625 -18 L 2.65625 0 L 8.414062 0 L 8.414062 -10.441406 C 8.414062 -12.058594 9.765625 -13.273438 11.429688 -13.273438 C 13.09375 -13.273438 14.265625 -12.058594 14.265625 -10.441406 L 14.265625 0 L 19.980469 0 L 19.980469 -11.386719 C 19.980469 -15.34375 17.101562 -18.359375 13.546875 -18.359375 Z M 13.546875 -18.359375 "/></g></g></g><g fill="#289672" fill-opacity="1"><g transform="translate(258.284462, 221.609589)"><g><path d="M 13.5 -13.546875 L 13.5 -18 L 9.226562 -18 L 9.226562 -24.929688 L 3.511719 -24.929688 L 3.511719 -18 L 0.496094 -18 L 0.496094 -13.546875 L 3.511719 -13.546875 L 3.511719 -6.433594 C 3.511719 -2.609375 6.75 0.359375 10.574219 0.359375 C 11.789062 0.359375 13.003906 0.0898438 13.453125 -0.226562 L 13.453125 -4.679688 L 11.296875 -4.679688 C 10.078125 -4.679688 9.226562 -5.625 9.226562 -7.109375 L 9.226562 -13.546875 Z M 13.5 -13.546875 "/></g></g></g><g fill="#289672" fill-opacity="1"><g transform="translate(271.78445, 221.609589)"><g><path d="M 6.074219 0.359375 C 7.875 0.359375 9.40625 -1.125 9.40625 -2.925781 C 9.40625 -4.726562 7.875 -6.210938 6.074219 -6.210938 C 4.320312 -6.210938 2.835938 -4.726562 2.835938 -2.925781 C 2.835938 -1.125 4.320312 0.359375 6.074219 0.359375 Z M 6.074219 0.359375 "/></g></g></g></svg>