<svg version="1.2" xmlns="http://www.w3.org/2000/svg" viewBox="0 0 217 98" width="217" height="98">
	<title>happyLogo-svg</title>
	<defs>
		<clipPath clipPathUnits="userSpaceOnUse" id="cp1">
			<path d="m5.74 6h74.01v87.89h-74.01z"/>
		</clipPath>
	</defs>
	<style>
		.s0 { fill: #289672 } 
	</style>
	<g id="Clip-Path" clip-path="url(#cp1)">
		<g id="Layer">
			<path id="Layer" fill-rule="evenodd" class="s0" d="m13.3 61.1h26.2v-24.9c-1.8 0.4-4 0.7-6.5 0.7-4 0-8.8-0.8-13.8-3.7-12.7-7.3-13.6-20.3-13.7-20.9-0.1-1.3 0.6-2.6 1.8-3.1 0.5-0.3 12.3-6 25 1.4 10.2 5.8 12.8 15.4 13.5 19.2 1.8-2.2 4.3-4.4 7.4-6.2 12.7-7.3 24.4-1.6 25-1.4 1.1 0.6 1.9 1.8 1.8 3.1-0.1 0.6-1.1 13.6-13.7 20.9-5 2.9-9.8 3.8-13.8 3.8-2.5 0-4.7-0.4-6.5-0.8v11.9h26.1c1.8 0 3.3 1.4 3.3 3.2 0 0.3-0.3 29.4-32.7 29.4-32.3 0-32.6-29.1-32.6-29.4 0-1.8 1.4-3.2 3.2-3.2zm15.7-44.9c-6.8-3.9-13.3-3-16.5-2 0.8 3.3 3.2 9.4 10 13.3 6.8 4 13.3 3 16.6 2-0.9-3.3-3.3-9.4-10.1-13.3zm34 24.4c6.8-4 9.2-10 10-13.3-3.3-1-9.7-2-16.5 2-6.9 3.9-9.2 10-10.1 13.3 3.3 1 9.8 1.9 16.6-2zm-20.3 46.6c20 0 24.7-13.3 25.9-19.6h-51.7c1.1 6.3 5.7 19.6 25.8 19.6z"/>
		</g>
	</g>
	<g id="Layer">
		<g id="Layer">
			<g id="Layer">
				<path id="Layer" class="s0" d="m115 21.5c-2 0-3.8 0.9-5.1 2.4v-14.9h-5.7v30.9h5.7v-10.2c0-1.6 1.3-3.1 3.1-3.1 1.6 0 2.7 1.2 2.7 2.8v10.5h5.8v-11.4c0-4-2.9-7-6.5-7z"/>
			</g>
		</g>
	</g>
	<g id="Layer">
		<g id="Layer">
			<g id="Layer">
				<path id="Layer" fill-rule="evenodd" class="s0" d="m146.4 35.2v4.7c-0.4 0.1-1 0.3-1.5 0.3-2.5 0-4.5-1.2-5.6-3-1.4 1.9-3.5 3-6.1 3-5 0-9-4.1-9-9.3 0-5.3 4-9.4 9-9.4 2 0 3.7 0.7 5.1 1.9v-1.5h5.7v11.5c0 1.5 0.8 1.8 1.6 1.8zm-7.9-4.3c0-2.4-1.9-4.3-4.2-4.3-2.4 0-4.3 1.9-4.3 4.3 0 2.3 1.9 4.2 4.3 4.2 2.3 0 4.2-1.9 4.2-4.2z"/>
			</g>
		</g>
	</g>
	<g id="Layer">
		<g id="Layer">
			<g id="Layer">
				<path id="Layer" fill-rule="evenodd" class="s0" d="m168.6 30.9c0 5.2-3.9 9.3-8.9 9.3-2.1 0-3.8-0.7-5.1-1.9v12.4h-5.8v-28.8h5.8v1.5c1.3-1.2 3-1.9 5.1-1.9 5 0 8.9 4.1 8.9 9.4zm-5.7 0c0-2.4-1.9-4.3-4.3-4.3-2.4 0-4.3 1.9-4.3 4.3 0 2.3 1.9 4.2 4.3 4.2 2.4 0 4.3-1.9 4.3-4.2z"/>
			</g>
		</g>
	</g>
	<g id="Layer">
		<g id="Layer">
			<g id="Layer">
				<path id="Layer" fill-rule="evenodd" class="s0" d="m191.5 30.9c0 5.2-3.9 9.3-8.9 9.3-2.1 0-3.8-0.7-5.1-1.9v12.4h-5.8v-28.8h5.8v1.5c1.3-1.2 3-1.9 5.1-1.9 5 0 8.9 4.1 8.9 9.4zm-5.7 0c0-2.4-1.9-4.3-4.3-4.3-2.4 0-4.3 1.9-4.3 4.3 0 2.3 1.9 4.2 4.3 4.2 2.4 0 4.3-1.9 4.3-4.2z"/>
			</g>
		</g>
	</g>
	<g id="Layer">
		<g id="Layer">
			<g id="Layer">
				<path id="Layer" class="s0" d="m206.6 21.9l-4.4 11.9-4.5-11.9h-6l7.6 18.4-4.3 10.4h6.1l11.5-28.8z"/>
			</g>
		</g>
	</g>
	<g id="Layer">
		<g id="Layer">
			<g id="Layer">
				<path id="Layer" fill-rule="evenodd" class="s0" d="m123.9 73.6c0 5.2-3.9 9.4-8.8 9.4-2.1 0-3.8-0.7-5.2-2v12.5l-5.7-0.1v-28.8l5.7 0.1v1.5c1.4-1.2 3.1-1.9 5.2-1.9 4.9 0 8.8 4.1 8.8 9.3zm-5.7 0c0-2.4-1.9-4.3-4.3-4.3-2.3 0-4.2 1.9-4.2 4.3 0 2.4 1.9 4.3 4.2 4.3 2.4 0 4.3-1.9 4.3-4.3z"/>
			</g>
		</g>
	</g>
	<g id="Layer">
		<g id="Layer">
			<g id="Layer">
				<path id="Layer" class="s0" d="m127.1 82.6h5.7v-30.8h-5.7z"/>
			</g>
		</g>
	</g>
	<g id="Layer">
		<g id="Layer">
			<g id="Layer">
				<path id="Layer" fill-rule="evenodd" class="s0" d="m158.1 77.9v4.7c-0.4 0.2-0.9 0.4-1.5 0.4-2.4 0-4.4-1.2-5.5-3.1-1.5 1.9-3.6 3.1-6.2 3.1-5 0-8.9-4.2-8.9-9.4 0-5.2 3.9-9.3 8.9-9.3 2.1 0 3.8 0.7 5.1 1.9v-1.6h5.7v11.6c0 1.5 0.9 1.7 1.6 1.7zm-7.8-4.3c0-2.4-1.9-4.3-4.3-4.3-2.4 0-4.3 1.9-4.3 4.3 0 2.4 1.9 4.3 4.3 4.3 2.4 0 4.3-1.9 4.3-4.3z"/>
			</g>
		</g>
	</g>
	<g id="Layer">
		<g id="Layer">
			<g id="Layer">
				<path id="Layer" class="s0" d="m171.5 64.3c-2.1 0-3.9 0.9-5.2 2.5v-2.2h-5.7v18h5.7v-10.4c0-1.6 1.4-2.9 3-2.9 1.7 0 2.9 1.3 2.9 2.9v10.4h5.7v-11.4c0-3.9-2.9-6.9-6.4-6.9z"/>
			</g>
		</g>
	</g>
	<g id="Layer">
		<g id="Layer">
			<g id="Layer">
				<path id="Layer" class="s0" d="m192.8 69.1v-4.5h-4.3v-6.9h-5.7v6.9h-3v4.5h3v7.1c0 3.8 3.2 6.8 7.1 6.8 1.2 0 2.4-0.3 2.8-0.6v-4.5h-2.1c-1.2 0-2.1-0.9-2.1-2.4v-6.4z"/>
			</g>
		</g>
	</g>
	<g id="Layer">
		<g id="Layer">
			<g id="Layer">
				<path id="Layer" class="s0" d="m198.9 83c1.8 0 3.3-1.5 3.3-3.3 0-1.8-1.5-3.3-3.3-3.3-1.8 0-3.3 1.5-3.3 3.3 0 1.8 1.5 3.3 3.3 3.3z"/>
			</g>
		</g>
	</g>
</svg>